#!OML:ASF X:\für Bonn\!DataBase\2005_08_12_Daniel\c3d\Daniel.ASF
:FULLY-SPECIFIED
:DEGREES
124
root 2.54073 17.6435 17.6005 -4.48221 19.2189 0.58364
lowerback 5.92089 4.34623 3.47734
upperback 0.746491 5.92109 -7.81295
thorax -1.33675 3.00498 -10.6298
lowerneck 1.7513 -7.94178 -4.35997
upperneck 12.1356 -11.0958 5.08881
head 4.31745 -5.4789 2.08022
rclavicle 3.87133e-014 1.90833e-014
rhumerus 52.5116 -17.8538 -60.9251
rradius 14.627
rwrist 27.962
rhand -4.07683 11.4149
rfingers 7.12502
rthumb 21.6802 -17.3912
lclavicle 3.87133e-014 1.90833e-014
lhumerus -31.9901 35.1083 64.8211
lradius 16.1222
lwrist -40.2243
lhand -9.10496 -7.63383
lfingers 7.12502
lthumb 16.8454 21.6555
rfemur 11.2533 14.134 22.3958
rtibia 13.0731
rfoot -29.1986 -29.3373
rtoes -9.36488
lfemur -0.908902 -19.0448 -19.1802
ltibia 26.9717
lfoot -20.8803 5.27854
ltoes -15.3138
125
root 2.53629 17.6429 17.6042 -4.47008 19.3585 0.59727
lowerback 5.99531 4.40328 3.50931
upperback 0.724894 5.99934 -7.85839
thorax -1.37616 3.04319 -10.7112
lowerneck 1.7972 -8.01104 -4.36696
upperneck 12.1163 -11.1921 5.11619
head 4.31026 -5.52662 2.08831
rclavicle -3.9906e-014 -1.59028e-014
rhumerus 52.9492 -18.8386 -62.2082
rradius 14.1518
rwrist 29.8092
rhand -3.71821 11.3183
rfingers 7.12502
rthumb 22.0245 -17.4476
lclavicle -3.9906e-014 -1.59028e-014
lhumerus -31.9625 34.7145 64.9375
lradius 16.2608
lwrist -39.7347
lhand -9.24474 -7.68251
lfingers 7.12502
lthumb 16.7108 21.6182
rfemur 11.2813 14.1147 22.424
rtibia 13.0679
rfoot -29.2988 -29.4317
rtoes -9.32711
lfemur -0.938844 -19.1767 -19.1858
ltibia 26.9879
lfoot -20.8811 5.26703
ltoes -15.3146
126
root 2.53294 17.6423 17.6079 -4.46744 19.5155 0.596192
lowerback 6.03755 4.43073 3.52039
upperback 0.739903 6.03812 -7.86282
thorax -1.37419 3.06378 -10.7276
lowerneck 1.7866 -8.05985 -4.42672
upperneck 12.0859 -11.2584 5.14505
head 4.31217 -5.56106 2.10514
rclavicle 4.63168e-014 -3.02153e-014
rhumerus 53.4676 -19.5732 -63.1859
rradius 13.6107
rwrist 31.2947
rhand -3.41823 11.1024
rfingers 7.12502
rthumb 22.3125 -17.6294
lclavicle 4.63168e-014 -3.02153e-014
lhumerus -31.9547 34.6663 64.9877
lradius 16.3389
lwrist -39.5317
lhand -9.38409 -7.70401
lfingers 7.12502
lthumb 16.5767 21.608
rfemur 11.3098 14.0373 22.4557
rtibia 13.0654
rfoot -29.3466 -29.5079
rtoes -9.3315
lfemur -0.983283 -19.2029 -19.1578
ltibia 27.0062
lfoot -20.8614 5.16339
ltoes -15.4144
127
root 2.52928 17.6421 17.6119 -4.45297 19.6603 0.611859
lowerback 6.08704 4.47295 3.53098
upperback 0.729516 6.09555 -7.88717
thorax -1.39672 3.09222 -10.769
lowerneck 1.88898 -8.11456 -4.4246
upperneck 11.9787 -11.3323 5.16807
head 4.25986 -5.59949 2.11489
rclavicle -3.56322e-014 -3.02153e-014
rhumerus 53.8887 -20.3034 -64.1383
rradius 13.1271
rwrist 32.7234
rhand -3.14052 10.9019
rfingers 7.12502
rthumb 22.5791 -17.7976
lclavicle -3.56322e-014 -3.02153e-014
lhumerus -31.9588 34.3902 65.06
lradius 16.4528
lwrist -39.2191
lhand -9.49774 -7.74402
lfingers 7.12502
lthumb 16.4673 21.5771
rfemur 11.344 14.0291 22.4845
rtibia 13.0573
rfoot -29.4582 -29.6163
rtoes -9.29734
lfemur -1.02649 -19.2842 -19.1553
ltibia 27.0205
lfoot -20.8497 5.10022
ltoes -15.4271
128
root 2.52549 17.6413 17.6154 -4.45709 19.8018 0.599828
lowerback 6.12634 4.50389 3.57889
upperback 0.755917 6.14231 -7.91652
thorax -1.37251 3.11863 -10.8342
lowerneck 1.88258 -8.16768 -4.40238
upperneck 11.8998 -11.4026 5.18629
head 4.23651 -5.63347 2.1147
rclavicle 3.98563e-014 -6.99722e-014
rhumerus 54.4562 -21.1481 -65.3371
rradius 12.6514
rwrist 34.3457
rhand -2.83362 10.7325
rfingers 7.12502
rthumb 22.8736 -17.931
lclavicle 3.98563e-014 -6.99722e-014
lhumerus -31.8409 34.038 65.2245
lradius 16.561
lwrist -38.7325
lhand -9.63246 -7.73153
lfingers 7.12502
lthumb 16.3376 21.6003
rfemur 11.383 13.9686 22.53
rtibia 13.0434
rfoot -29.5043 -29.6881
rtoes -9.25027
lfemur -1.06184 -19.319 -19.12
ltibia 27.0403
lfoot -20.8375 5.01826
ltoes -15.5258
129
root 2.52196 17.6407 17.6193 -4.45426 19.9393 0.600227
lowerback 6.17398 4.53691 3.59837
upperback 0.751238 6.18825 -7.93381
thorax -1.39012 3.1415 -10.8721
lowerneck 1.91214 -8.21546 -4.40744
upperneck 11.8696 -11.4692 5.21425
head 4.22671 -5.66632 2.12359
rclavicle 9.24349e-015 1.59028e-015
rhumerus 55.0423 -21.91 -66.4761
rradius 12.1055
rwrist 35.8949
rhand -2.44155 10.5287
rfingers 7.12502
rthumb 23.2498 -18.0877
lclavicle 9.24349e-015 1.59028e-015
lhumerus -31.8356 33.7657 65.3108
lradius 16.6977
lwrist -38.3822
lhand -9.69018 -7.77656
lfingers 7.12502
lthumb 16.282 21.5598
rfemur 11.4178 13.9811 22.58
rtibia 13.0372
rfoot -29.6231 -29.8077
rtoes -9.20377
lfemur -1.08909 -19.398 -19.1028
ltibia 27.0513
lfoot -20.833 4.95575
ltoes -15.528
130
root 2.51894 17.6411 17.6225 -4.44174 20.0888 0.61235
lowerback 6.20248 4.5612 3.61098
upperback 0.766553 6.22303 -7.93899
thorax -1.38056 3.16045 -10.8886
lowerneck 1.94403 -8.25745 -4.43319
upperneck 11.804 -11.5248 5.23041
head 4.20359 -5.69556 2.13315
rclavicle 2.41523e-014 -3.18055e-014
rhumerus 55.6515 -22.7021 -67.7161
rradius 11.697
rwrist 37.537
rhand -1.95487 10.3002
rfingers 7.12502
rthumb 23.7167 -18.2565
lclavicle 2.41523e-014 -3.18055e-014
lhumerus -31.8119 33.64 65.3681
lradius 16.7437
lwrist -38.1792
lhand -9.77693 -7.794
lfingers 7.12502
lthumb 16.1984 21.5492
rfemur 11.4559 13.9822 22.6163
rtibia 13.0234
rfoot -29.7428 -29.9269
rtoes -9.16074
lfemur -1.13035 -19.4866 -19.0975
ltibia 27.066
lfoot -20.8239 4.89246
ltoes -15.5276
131
root 2.51511 17.6408 17.6266 -4.41372 20.211 0.640219
lowerback 6.20315 4.59461 3.59286
upperback 0.781481 6.26802 -7.95869
thorax -1.35532 3.18549 -10.9006
lowerneck 1.9942 -8.30929 -4.42885
upperneck 11.7259 -11.5951 5.25568
head 4.17185 -5.73095 2.14096
rclavicle -6.88789e-014 2.38542e-014
rhumerus 56.316 -23.5509 -69.1364
rradius 11.3508
rwrist 39.3738
rhand -1.35606 10.0618
rfingers 7.12502
rthumb 24.2909 -18.4193
lclavicle -6.88789e-014 2.38542e-014
lhumerus -31.8218 33.702 65.3097
lradius 16.7943
lwrist -38.2008
lhand -9.87046 -7.93354
lfingers 7.12502
lthumb 16.1084 21.417
rfemur 11.48 13.97 22.6242
rtibia 13.0012
rfoot -29.8213 -30.0121
rtoes -9.11885
lfemur -1.17876 -19.5238 -19.1033
ltibia 27.0812
lfoot -20.7875 4.83882
ltoes -15.638
132
root 2.51159 17.6402 17.6296 -4.40117 20.3571 0.653194
lowerback 6.22085 4.61972 3.58322
upperback 0.806293 6.30279 -7.94661
thorax -1.33426 3.20501 -10.8828
lowerneck 1.9904 -8.35568 -4.52821
upperneck 11.6871 -11.6597 5.30534
head 4.17445 -5.76574 2.17209
rclavicle -9.92929e-014 3.02153e-014
rhumerus 57.161 -24.5579 -70.9222
rradius 11.0569
rwrist 41.5148
rhand -0.671999 9.93725
rfingers 7.12502
rthumb 24.9466 -18.4544
lclavicle -9.92929e-014 3.02153e-014
lhumerus -31.8383 33.7953 65.2805
lradius 16.8309
lwrist -38.292
lhand -9.86785 -7.98303
lfingers 7.12502
lthumb 16.1109 21.3673
rfemur 11.5243 14.0014 22.6718
rtibia 12.983
rfoot -29.9386 -30.1296
rtoes -9.05152
lfemur -1.2288 -19.5412 -19.0795
ltibia 27.0973
lfoot -20.7749 4.70782
ltoes -15.6417
133
root 2.50934 17.6402 17.6322 -4.39557 20.4842 0.641472
lowerback 6.2528 4.63589 3.63104
upperback 0.808135 6.32839 -7.95495
thorax -1.33837 3.21821 -10.9246
lowerneck 2.04992 -8.38868 -4.53547
upperneck 11.6078 -11.7024 5.31024
head 4.13812 -5.78886 2.17678
rclavicle -6.64935e-014 1.09729e-013
rhumerus 57.8644 -25.3997 -72.4919
rradius 10.8329
rwrist 43.4714
rhand 0.0898637 9.69424
rfingers 7.12502
rthumb 25.6764 -18.5941
lclavicle -6.64935e-014 1.09729e-013
lhumerus -31.8887 33.9742 65.1351
lradius 16.8241
lwrist -38.5019
lhand -9.92424 -8.06261
lfingers 7.12502
lthumb 16.0566 21.2921
rfemur 11.562 13.9882 22.7197
rtibia 12.9527
rfoot -30.0268 -30.2214
rtoes -9.01066
lfemur -1.27058 -19.626 -19.0541
ltibia 27.1195
lfoot -20.7732 4.66094
ltoes -15.6404
134
root 2.5058 17.6396 17.6346 -4.39095 20.6087 0.653648
lowerback 6.31197 4.65733 3.64167
upperback 0.794585 6.35757 -7.97539
thorax -1.37571 3.23142 -10.9623
lowerneck 2.16836 -8.42716 -4.5523
upperneck 11.5186 -11.7595 5.37385
head 4.09375 -5.81867 2.20512
rclavicle -5.54609e-014 3.33958e-014
rhumerus 58.8013 -26.4495 -74.5925
rradius 10.6318
rwrist 45.8766
rhand 0.93424 9.55619
rfingers 7.12502
rthumb 26.4849 -18.6129
lclavicle -5.54609e-014 3.33958e-014
lhumerus -31.9743 34.2638 64.8912
lradius 16.7617
lwrist -38.8141
lhand -9.97511 -8.14515
lfingers 7.12502
lthumb 16.0076 21.2135
rfemur 11.6082 13.9777 22.7498
rtibia 12.9231
rfoot -30.1143 -30.3128
rtoes -8.96905
lfemur -1.30313 -19.6775 -19.0484
ltibia 27.1375
lfoot -20.7646 4.60013
ltoes -15.69
135
root 2.50375 17.6394 17.6375 -4.38071 20.7149 0.632481
lowerback 6.31859 4.68649 3.69587
upperback 0.810153 6.40201 -7.97515
thorax -1.34744 3.25601 -10.9951
lowerneck 2.19079 -8.46748 -4.65152
upperneck 11.4587 -11.8192 5.45452
head 4.08632 -5.8507 2.24848
rclavicle 1.68967e-014 1.59028e-015
rhumerus 59.7246 -27.364 -76.4464
rradius 10.433
rwrist 48.0344
rhand 1.75 9.44635
rfingers 7.12502
rthumb 27.2655 -18.6026
lclavicle 1.68967e-014 1.59028e-015
lhumerus -31.9612 34.4395 64.8119
lradius 16.7448
lwrist -38.976
lhand -9.97469 -8.13453
lfingers 7.12502
lthumb 16.008 21.2241
rfemur 11.633 13.9913 22.8053
rtibia 12.8929
rfoot -30.1996 -30.412
rtoes -8.92991
lfemur -1.35331 -19.7034 -19.0015
ltibia 27.1569
lfoot -20.7657 4.51481
ltoes -15.6138
